# xmcd
#
# Track frame offsets: 
#        150
#        15229
#        25941
#        42791
#        54293
#        67715
#        86384
#        101976
#        114908
#        125425
#        145382
#        155419
#        163046
#        174911
#
# Disc length: 2673 seconds
#
# Revision: 2
# Processed by: cddbd v1.5.2PL0 Copyright (c) Steve Scherf et al.
# Submitted via: ExactAudioCopy v0.95b4
#
DISCID=a20a6f0e
DTITLE=Wayne Hancock - Thunderstorms And Neon Signs
DYEAR=1995
DGENRE=Country
TTITLE0=Juke Joint Jumping
TTITLE1=Poor Boy Blues
TTITLE2=Thunderstorms And Neon Signs
TTITLE3=She's My Baby
TTITLE4=Big City Good Time Gal
TTITLE5=Ain't Nobody's Blues But My Own
TTITLE6=Double A Daddy
TTITLE7=Why Don't You Leave Me Alone
TTITLE8=Tag Along
TTITLE9=Cold Lonesome Wind
TTITLE10=Locomotive Joe
TTITLE11=No Loving Tonight
TTITLE12=Friday And Saturday Night
TTITLE13=Summertime
EXTD=
EXTT0=
EXTT1=
EXTT2=
EXTT3=
EXTT4=
EXTT5=
EXTT6=
EXTT7=
EXTT8=
EXTT9=
EXTT10=
EXTT11=
EXTT12=
EXTT13=
PLAYORDER=
